<!DOCTYPE svg PUBLIC "-//W3C//DTD SVG 1.1//EN" "http://www.w3.org/Graphics/SVG/1.1/DTD/svg11.dtd">
<!-- Uploaded to: SVG Repo, www.svgrepo.com, Transformed by: SVG Repo Mixer Tools -->
<svg width="800px" height="800px" viewBox="-1 0 24 24" id="meteor-icon-kit__solid-files" fill="none" xmlns="http://www.w3.org/2000/svg">
<g id="SVGRepo_bgCarrier" stroke-width="0"/>
<g id="SVGRepo_tracerCarrier" stroke-linecap="round" stroke-linejoin="round"/>
<g id="SVGRepo_iconCarrier">
<path fill-rule="evenodd" clip-rule="evenodd" d="M5 6C5.55228 6 6 5.55228 6 5V0H13C14.1046 0 15 0.89543 15 2V17C15 18.1046 14.1046 19 13 19H2C0.89543 19 0 18.1046 0 17V6H5zM4 0.341411V4H0.34141C0.94398 2.29517 2.29517 0.943981 4 0.341411zM17 5H20C21.1046 5 22 5.89543 22 7V22C22 23.1046 21.1046 24 20 24H9C7.89543 24 7 23.1046 7 22V21H13C15.2091 21 17 19.2091 17 17V5z" fill="#082440"/>
</g>
</svg>