<!DOCTYPE svg PUBLIC "-//W3C//DTD SVG 1.1//EN" "http://www.w3.org/Graphics/SVG/1.1/DTD/svg11.dtd">
<!-- Uploaded to: SVG Repo, www.svgrepo.com, Transformed by: SVG Repo Mixer Tools -->
<svg width="800px" height="800px" viewBox="0 0 24 24" fill="none" xmlns="http://www.w3.org/2000/svg">
<g id="SVGRepo_bgCarrier" stroke-width="0"/>
<g id="SVGRepo_tracerCarrier" stroke-linecap="round" stroke-linejoin="round"/>
<g id="SVGRepo_iconCarrier">
<path d="M21 7v11.6c0 1.33-1.07 2.4-2.4 2.4H5.4C4.07 21 3 19.93 3 18.6V7" fill="#13103d" fill-opacity=".16"/>
<path d="M21 7v11.6c0 1.33-1.07 2.4-2.4 2.4H5.4C4.07 21 3 19.93 3 18.6V7" stroke="#13103d" stroke-width="1.5" stroke-miterlimit="10" stroke-linecap="round"/>
<path d="M21.4 3H2.6A1.6 1.6 0 0 0 1 4.6v.8A1.6 1.6 0 0 0 2.6 7h18.8A1.6 1.6 0 0 0 23 5.4v-.8A1.6 1.6 0 0 0 21.4 3Z" fill="#a5a1a1" stroke="#13103d" stroke-width="1.5" stroke-miterlimit="10"/>
<path d="M8 11h8" stroke="#13103d" stroke-width="1.5" stroke-miterlimit="10" stroke-linecap="round"/>
</g>
</svg>